<svg width="210" height="178" viewBox="0 0 210 178" fill="none" xmlns="http://www.w3.org/2000/svg">
<rect x="11" width="183" height="154" rx="17" fill="#102885"/>
<path d="M80 76.6667L83.1837 79L104.408 70.8333L106 67.9167L102.286 65" stroke="black"/>
<path d="M71.7579 25.1088C60.3875 23.8372 71.5773 34.0102 68.5091 39.8234L45.7681 83.4218C34.3978 113.941 81.5037 125.93 83.6695 123.75C85.4021 122.006 84.9329 121.752 85.2938 118.301C88.0011 115.031 94.318 100.68 98.2886 94.8664L113.991 63.2576C114.532 47.4531 91.25 27.2888 71.7579 25.1088Z" fill="white"/>
<path d="M108 67.4286L79.0909 46L66 71.1786C78.2182 76.3214 90.7273 86.5357 95.4545 91L108 67.4286Z" fill="#102885"/>
<path d="M124.855 112.595L114.48 80.1622L137.414 114.757L148.882 78V114.757L174 80.1622L144.513 138L91 129.351L123.217 124.486L96.4605 106.649L124.855 112.595Z" fill="white"/>
<path d="M95.1739 87C92.9826 84.8462 87.4783 80.7179 85 78.9231L103 72L95.1739 87Z" fill="white"/>
<path d="M81.3774 78L77 75.0455L101.623 65L106 67.9545L81.3774 78Z" fill="white"/>
<path d="M125.788 76.375C126.308 78.0989 125.834 79.4059 125.788 79.9494C125.291 79.4059 124.227 78.7268 123.707 77.0028C123.187 75.2789 123.707 73.9719 123.806 73.5674C124.204 73.9719 125.268 74.6511 125.788 76.375Z" fill="white"/>
<path d="M96.941 119.22C98.7307 119.419 99.7465 120.368 100.228 120.624C99.5331 120.868 98.4907 121.58 96.701 121.381C94.9113 121.182 93.9136 120.19 93.5805 119.94C94.1089 119.733 95.1513 119.022 96.941 119.22Z" fill="white"/>
<path d="M12.2727 164.335V167.403H5.82386V164.335H12.2727ZM0.909091 168.085H4.80114C4.7822 168.795 4.98343 169.319 5.40483 169.655C5.83097 169.991 6.41572 170.159 7.15909 170.159C7.85038 170.159 8.37595 170.024 8.7358 169.754C9.10038 169.48 9.34896 169.051 9.48153 168.469C9.61884 167.882 9.6875 167.119 9.6875 166.182V165.301C9.6875 164.383 9.60938 163.632 9.45312 163.05C9.29688 162.467 9.04119 162.039 8.68608 161.764C8.33097 161.49 7.85038 161.352 7.24432 161.352C6.58144 161.352 6.07244 161.44 5.71733 161.615C5.36222 161.79 5.11837 162.041 4.9858 162.368C4.85322 162.695 4.7822 163.085 4.77273 163.54H0.880682C0.975379 162.564 1.26657 161.677 1.75426 160.876C2.24195 160.076 2.94034 159.439 3.84943 158.966C4.75852 158.492 5.89015 158.256 7.24432 158.256C8.51326 158.256 9.61648 158.542 10.554 159.115C11.4962 159.683 12.2254 160.498 12.7415 161.558C13.2623 162.614 13.5227 163.871 13.5227 165.33V166.182C13.5227 167.64 13.2718 168.895 12.7699 169.946C12.268 170.992 11.5436 171.797 10.5966 172.361C9.64962 172.92 8.50379 173.199 7.15909 173.199C5.9375 173.199 4.86506 172.991 3.94176 172.574C3.0232 172.152 2.29877 171.561 1.76847 170.798C1.2429 170.031 0.956439 169.127 0.909091 168.085ZM14.8491 173V169.96L15.2468 169.903C15.7298 169.828 16.1299 169.619 16.4471 169.278C16.7691 168.933 17.0153 168.386 17.1857 167.638C17.3609 166.885 17.4722 165.86 17.5195 164.562L17.7468 158.455H28.2866V173H24.4798V161.523H21.3832L21.1559 166.097C21.0707 167.792 20.8434 169.143 20.4741 170.152C20.1048 171.161 19.5437 171.887 18.7908 172.332C18.038 172.777 17.046 173 15.815 173H14.8491ZM30.1562 173V158.455H40.6392V161.636H34.1051V164.136H40.0994V167.318H34.1051V169.818H40.6108V173H30.1562ZM51.5607 173L47.1005 167.119H46.5465V173H42.5977V158.455H46.5465V163.938H47.0579L51.234 158.455H56.2056L50.6658 165.443L56.5181 173H51.5607ZM57.1804 161.636V158.455H69.8224V161.636H65.4474V173H61.5554V161.636H57.1804ZM71.3086 173V158.455H77.587C78.6665 158.455 79.6112 158.668 80.4208 159.094C81.2305 159.52 81.8602 160.119 82.31 160.891C82.7598 161.662 82.9847 162.564 82.9847 163.597C82.9847 164.638 82.7527 165.54 82.2887 166.303C81.8294 167.065 81.1831 167.652 80.3498 168.064C79.5212 168.476 78.5529 168.682 77.445 168.682H73.695V165.614H76.6495C77.1135 165.614 77.5089 165.533 77.8356 165.372C78.167 165.206 78.4203 164.972 78.5955 164.669C78.7755 164.366 78.8654 164.009 78.8654 163.597C78.8654 163.18 78.7755 162.825 78.5955 162.531C78.4203 162.233 78.167 162.006 77.8356 161.849C77.5089 161.688 77.1135 161.608 76.6495 161.608H75.2575V173H71.3086ZM98.5245 165.727C98.5245 167.347 98.2096 168.713 97.5799 169.825C96.9502 170.933 96.1003 171.774 95.0302 172.347C93.9601 172.915 92.7669 173.199 91.4506 173.199C90.1249 173.199 88.927 172.912 87.8569 172.339C86.7915 171.762 85.944 170.919 85.3143 169.811C84.6893 168.698 84.3768 167.337 84.3768 165.727C84.3768 164.108 84.6893 162.744 85.3143 161.636C85.944 160.524 86.7915 159.683 87.8569 159.115C88.927 158.542 90.1249 158.256 91.4506 158.256C92.7669 158.256 93.9601 158.542 95.0302 159.115C96.1003 159.683 96.9502 160.524 97.5799 161.636C98.2096 162.744 98.5245 164.108 98.5245 165.727ZM94.462 165.727C94.462 164.856 94.346 164.122 94.114 163.526C93.8867 162.924 93.5482 162.47 93.0984 162.162C92.6533 161.849 92.104 161.693 91.4506 161.693C90.7972 161.693 90.2456 161.849 89.7958 162.162C89.3507 162.47 89.0122 162.924 88.7802 163.526C88.5529 164.122 88.4393 164.856 88.4393 165.727C88.4393 166.598 88.5529 167.335 88.7802 167.936C89.0122 168.533 89.3507 168.987 89.7958 169.3C90.2456 169.607 90.7972 169.761 91.4506 169.761C92.104 169.761 92.6533 169.607 93.0984 169.3C93.5482 168.987 93.8867 168.533 94.114 167.936C94.346 167.335 94.462 166.598 94.462 165.727ZM113.931 163.909H109.925C109.897 163.578 109.821 163.277 109.698 163.007C109.58 162.737 109.414 162.505 109.201 162.311C108.993 162.112 108.739 161.961 108.441 161.857C108.143 161.748 107.804 161.693 107.425 161.693C106.763 161.693 106.201 161.854 105.742 162.176C105.288 162.498 104.942 162.96 104.705 163.561C104.473 164.162 104.357 164.884 104.357 165.727C104.357 166.617 104.476 167.363 104.712 167.964C104.954 168.561 105.302 169.011 105.756 169.314C106.211 169.612 106.758 169.761 107.397 169.761C107.762 169.761 108.088 169.716 108.377 169.626C108.666 169.532 108.917 169.397 109.13 169.222C109.343 169.046 109.516 168.836 109.648 168.589C109.786 168.339 109.878 168.057 109.925 167.744L113.931 167.773C113.884 168.388 113.711 169.016 113.413 169.655C113.114 170.289 112.691 170.876 112.141 171.416C111.597 171.951 110.922 172.382 110.117 172.709C109.312 173.036 108.377 173.199 107.312 173.199C105.977 173.199 104.779 172.912 103.718 172.339C102.662 171.767 101.826 170.924 101.211 169.811C100.6 168.698 100.295 167.337 100.295 165.727C100.295 164.108 100.607 162.744 101.232 161.636C101.857 160.524 102.7 159.683 103.761 159.115C104.821 158.542 106.005 158.256 107.312 158.256C108.23 158.256 109.076 158.381 109.847 158.632C110.619 158.883 111.296 159.25 111.879 159.733C112.461 160.211 112.93 160.801 113.285 161.501C113.64 162.202 113.855 163.005 113.931 163.909ZM115.723 173V158.455H122.029C123.137 158.455 124.068 158.604 124.821 158.902C125.578 159.2 126.149 159.622 126.532 160.166C126.921 160.711 127.115 161.352 127.115 162.091C127.115 162.626 126.996 163.114 126.76 163.554C126.528 163.994 126.201 164.364 125.779 164.662C125.358 164.955 124.866 165.159 124.302 165.273V165.415C124.927 165.438 125.495 165.597 126.007 165.891C126.518 166.179 126.925 166.58 127.228 167.091C127.531 167.598 127.683 168.194 127.683 168.881C127.683 169.676 127.475 170.384 127.058 171.004C126.646 171.625 126.059 172.112 125.297 172.467C124.534 172.822 123.625 173 122.569 173H115.723ZM119.672 169.847H121.518C122.181 169.847 122.678 169.723 123.01 169.477C123.341 169.226 123.507 168.857 123.507 168.369C123.507 168.028 123.429 167.74 123.272 167.503C123.116 167.266 122.894 167.086 122.605 166.963C122.321 166.84 121.977 166.778 121.575 166.778H119.672V169.847ZM119.672 164.335H121.291C121.636 164.335 121.942 164.281 122.207 164.172C122.472 164.063 122.678 163.907 122.825 163.703C122.976 163.495 123.052 163.241 123.052 162.943C123.052 162.493 122.891 162.15 122.569 161.913C122.247 161.672 121.84 161.551 121.348 161.551H119.672V164.335ZM132.86 173H128.599L133.4 158.455H138.798L143.599 173H139.338L136.156 162.46H136.042L132.86 173ZM132.065 167.261H140.076V170.216H132.065V167.261ZM145 173V158.455H151.278C152.358 158.455 153.303 158.668 154.112 159.094C154.922 159.52 155.552 160.119 156.001 160.891C156.451 161.662 156.676 162.564 156.676 163.597C156.676 164.638 156.444 165.54 155.98 166.303C155.521 167.065 154.875 167.652 154.041 168.064C153.213 168.476 152.244 168.682 151.136 168.682H147.386V165.614H150.341C150.805 165.614 151.2 165.533 151.527 165.372C151.858 165.206 152.112 164.972 152.287 164.669C152.467 164.366 152.557 164.009 152.557 163.597C152.557 163.18 152.467 162.825 152.287 162.531C152.112 162.233 151.858 162.006 151.527 161.849C151.2 161.688 150.805 161.608 150.341 161.608H148.949V173H145ZM179.233 170.074L179.034 176.409H175.54V173H174.489V170.074H179.233ZM159.091 158.455H162.926V169.96H166.477V158.455H170.284V169.96H173.75V158.455H177.557V173H159.091V158.455ZM180.566 158.455H184.515V166.068H184.629L189.799 158.455H193.152V173H189.203V165.358H189.118L183.862 173H180.566V158.455ZM203.983 173L199.522 167.119H198.968V173H195.02V158.455H198.968V163.938H199.48L203.656 158.455H208.627L203.088 165.443L208.94 173H203.983Z" fill="#4F63B0"/>
</svg>
