<svg width="183" height="178" viewBox="0 0 183 178" fill="none" xmlns="http://www.w3.org/2000/svg">
<path d="M69.55 133.328C71.3889 133.555 72.4348 134.442 72.9301 134.687C72.2167 134.889 71.1476 135.506 69.3087 135.278C67.4698 135.051 66.4425 134.126 66.0996 133.891C66.6419 133.717 67.711 133.1 69.55 133.328Z" fill="white"/>
<rect width="183" height="154" rx="17" fill="#102885"/>
<path d="M111.149 106.424C110.994 108.27 110.149 109.35 109.924 109.854C109.694 109.15 109.036 108.105 109.191 106.259C109.346 104.413 110.23 103.35 110.451 102.998C110.646 103.533 111.304 104.577 111.149 106.424Z" fill="white"/>
<path d="M87.8018 13.2014C79.7395 13.8534 60.9979 20.6673 61 43.1915C61.0001 44.5464 61.8645 46.9357 63.1655 49.711L76.0356 64.0541L77.4817 63.4131C80.2085 62.2044 83.3814 62.6131 85.7129 64.4734L87.6289 66.0021C88.1641 66.4291 88.5372 67.0263 88.6861 67.6946L91.0708 78.3972L96.9541 79.0491L102.837 74.4854L100.223 84.9167L102.837 85.5687C101.791 87.1334 104.581 88.8285 106.106 89.4804C104.014 93.653 112.207 92.9575 116.565 92.0883L127.678 66.6619L125.063 55.5787C131.862 42.018 125.281 36.0199 121.141 34.716C112.774 14.8965 95.4285 12.1148 87.8018 13.2014Z" fill="white"/>
<path d="M76 141.523C85.9925 142.82 115.362 141.004 116.404 141.523L134 126.613L113.146 131.151V114.297L105.978 127.91L97.5056 113L100.112 133.744L81.8652 131.151L96.2022 137.634L76 141.523Z" fill="white"/>
<ellipse cx="81.6196" cy="70.114" rx="5.21374" ry="3.91031" transform="rotate(37.6261 81.6196 70.114)" fill="white"/>
<ellipse cx="97.2615" cy="59.6249" rx="6.29267" ry="4.64656" transform="rotate(37.6261 97.2615 59.6249)" fill="#102885"/>
<path d="M95 65.3684L96.4286 54H100L98.5714 66L95 65.3684Z" fill="white"/>
<path d="M110 134L157 72" stroke="white"/>
<path d="M36 134L58.8846 113.405C63.2436 109.64 73.9231 104.103 81.7692 112.076L104 134" stroke="white" stroke-width="5"/>
<path d="M104 53L122 31" stroke="#102885" stroke-width="4"/>
<path d="M100.8 63.8954C103.4 64.9814 105.567 57.3346 106 53.7148C105.35 52.8099 103.92 51 103.4 51C97.16 51 93.65 53.9411 93 55.0722L94.8872 54.7438C96.2017 54.5151 97.5541 54.6667 98.7852 55.1809L100.15 55.7509L100.8 57.1084V63.8954Z" fill="#102885"/>
<path d="M21.1648 158.455V161.636H14.8864V173H10.9375V158.455H21.1648ZM24.5792 173H20.3178L25.119 158.455H30.5167L35.3178 173H31.0565L27.8746 162.46H27.761L24.5792 173ZM23.7837 167.261H31.7951V170.216H23.7837V167.261ZM42.429 173.199C41.2831 173.199 40.2652 173.002 39.375 172.609C38.4896 172.212 37.7936 171.665 37.2869 170.969C36.7803 170.273 36.5246 169.473 36.5199 168.568H40.4972C40.5019 168.848 40.5871 169.098 40.7528 169.321C40.9233 169.539 41.1553 169.709 41.4489 169.832C41.7424 169.955 42.0786 170.017 42.4574 170.017C42.822 170.017 43.1439 169.953 43.4233 169.825C43.7027 169.693 43.9205 169.51 44.0767 169.278C44.233 169.046 44.3087 168.781 44.304 168.483C44.3087 168.189 44.2188 167.929 44.0341 167.702C43.8542 167.474 43.6009 167.297 43.2741 167.169C42.9474 167.041 42.571 166.977 42.1449 166.977H40.6676V164.25H42.1449C42.5379 164.25 42.8835 164.186 43.1818 164.058C43.4848 163.93 43.7192 163.753 43.8849 163.526C44.0554 163.298 44.1383 163.038 44.1335 162.744C44.1383 162.46 44.0696 162.209 43.9276 161.991C43.7855 161.774 43.5866 161.603 43.331 161.48C43.08 161.357 42.7888 161.295 42.4574 161.295C42.0975 161.295 41.7756 161.359 41.4915 161.487C41.2121 161.615 40.992 161.793 40.831 162.02C40.67 162.247 40.5871 162.508 40.5824 162.801H36.804C36.8087 161.911 37.0526 161.125 37.5355 160.443C38.0232 159.761 38.6908 159.226 39.5384 158.838C40.3859 158.45 41.3589 158.256 42.4574 158.256C43.5322 158.256 44.4815 158.438 45.3054 158.803C46.134 159.167 46.7803 159.669 47.2443 160.308C47.7131 160.943 47.9451 161.67 47.9403 162.489C47.9498 163.303 47.6705 163.971 47.1023 164.491C46.5388 165.012 45.8239 165.32 44.9574 165.415V165.528C46.1316 165.656 47.0147 166.016 47.6065 166.608C48.1984 167.195 48.4896 167.934 48.4801 168.824C48.4848 169.676 48.2292 170.431 47.7131 171.089C47.2017 171.748 46.4891 172.264 45.5753 172.638C44.6662 173.012 43.6174 173.199 42.429 173.199ZM64.3058 165.727C64.3058 167.347 63.9909 168.713 63.3612 169.825C62.7314 170.933 61.8815 171.774 60.8114 172.347C59.7414 172.915 58.5482 173.199 57.2319 173.199C55.9061 173.199 54.7082 172.912 53.6381 172.339C52.5728 171.762 51.7253 170.919 51.0955 169.811C50.4705 168.698 50.158 167.337 50.158 165.727C50.158 164.108 50.4705 162.744 51.0955 161.636C51.7253 160.524 52.5728 159.683 53.6381 159.115C54.7082 158.542 55.9061 158.256 57.2319 158.256C58.5482 158.256 59.7414 158.542 60.8114 159.115C61.8815 159.683 62.7314 160.524 63.3612 161.636C63.9909 162.744 64.3058 164.108 64.3058 165.727ZM60.2433 165.727C60.2433 164.856 60.1272 164.122 59.8952 163.526C59.668 162.924 59.3294 162.47 58.8796 162.162C58.4345 161.849 57.8853 161.693 57.2319 161.693C56.5785 161.693 56.0269 161.849 55.5771 162.162C55.132 162.47 54.7934 162.924 54.5614 163.526C54.3342 164.122 54.2205 164.856 54.2205 165.727C54.2205 166.598 54.3342 167.335 54.5614 167.936C54.7934 168.533 55.132 168.987 55.5771 169.3C56.0269 169.607 56.5785 169.761 57.2319 169.761C57.8853 169.761 58.4345 169.607 58.8796 169.3C59.3294 168.987 59.668 168.533 59.8952 167.936C60.1272 167.335 60.2433 166.598 60.2433 165.727ZM79.7124 163.909H75.7067C75.6783 163.578 75.6025 163.277 75.4794 163.007C75.361 162.737 75.1953 162.505 74.9822 162.311C74.7739 162.112 74.5206 161.961 74.2223 161.857C73.924 161.748 73.5855 161.693 73.2067 161.693C72.5438 161.693 71.9827 161.854 71.5234 162.176C71.0689 162.498 70.7232 162.96 70.4865 163.561C70.2545 164.162 70.1385 164.884 70.1385 165.727C70.1385 166.617 70.2569 167.363 70.4936 167.964C70.7351 168.561 71.0831 169.011 71.5376 169.314C71.9922 169.612 72.5391 169.761 73.1783 169.761C73.5429 169.761 73.8696 169.716 74.1584 169.626C74.4472 169.532 74.6982 169.397 74.9112 169.222C75.1243 169.046 75.2971 168.836 75.4297 168.589C75.567 168.339 75.6593 168.057 75.7067 167.744L79.7124 167.773C79.665 168.388 79.4922 169.016 79.1939 169.655C78.8956 170.289 78.4718 170.876 77.9226 171.416C77.3781 171.951 76.7034 172.382 75.8984 172.709C75.0935 173.036 74.1584 173.199 73.093 173.199C71.7578 173.199 70.5599 172.912 69.4993 172.339C68.4434 171.767 67.6077 170.924 66.9922 169.811C66.3814 168.698 66.076 167.337 66.076 165.727C66.076 164.108 66.3885 162.744 67.0135 161.636C67.6385 160.524 68.4813 159.683 69.5419 159.115C70.6025 158.542 71.7862 158.256 73.093 158.256C74.0116 158.256 74.8568 158.381 75.6286 158.632C76.4003 158.883 77.0774 159.25 77.6598 159.733C78.2422 160.211 78.7109 160.801 79.0661 161.501C79.4212 162.202 79.6366 163.005 79.7124 163.909ZM81.5039 173V158.455H87.8107C88.9187 158.455 89.8491 158.604 90.6019 158.902C91.3595 159.2 91.93 159.622 92.3136 160.166C92.7018 160.711 92.896 161.352 92.896 162.091C92.896 162.626 92.7776 163.114 92.5408 163.554C92.3088 163.994 91.9821 164.364 91.5607 164.662C91.1393 164.955 90.6469 165.159 90.0835 165.273V165.415C90.7085 165.438 91.2766 165.597 91.788 165.891C92.2994 166.179 92.7066 166.58 93.0096 167.091C93.3126 167.598 93.4641 168.194 93.4641 168.881C93.4641 169.676 93.2558 170.384 92.8391 171.004C92.4272 171.625 91.8401 172.112 91.0778 172.467C90.3155 172.822 89.4064 173 88.3505 173H81.5039ZM85.4528 169.847H87.2994C87.9622 169.847 88.4594 169.723 88.7908 169.477C89.1223 169.226 89.288 168.857 89.288 168.369C89.288 168.028 89.2099 167.74 89.0536 167.503C88.8974 167.266 88.6748 167.086 88.386 166.963C88.1019 166.84 87.7586 166.778 87.3562 166.778H85.4528V169.847ZM85.4528 164.335H87.0721C87.4177 164.335 87.7231 164.281 87.9883 164.172C88.2534 164.063 88.4594 163.907 88.6062 163.703C88.7577 163.495 88.8335 163.241 88.8335 162.943C88.8335 162.493 88.6725 162.15 88.3505 161.913C88.0285 161.672 87.6213 161.551 87.1289 161.551H85.4528V164.335ZM98.6417 173H94.3803L99.1815 158.455H104.579L109.38 173H105.119L101.937 162.46H101.824L98.6417 173ZM97.8462 167.261H105.858V170.216H97.8462V167.261ZM110.781 173V158.455H117.06C118.139 158.455 119.084 158.668 119.893 159.094C120.703 159.52 121.333 160.119 121.783 160.891C122.232 161.662 122.457 162.564 122.457 163.597C122.457 164.638 122.225 165.54 121.761 166.303C121.302 167.065 120.656 167.652 119.822 168.064C118.994 168.476 118.026 168.682 116.918 168.682H113.168V165.614H116.122C116.586 165.614 116.982 165.533 117.308 165.372C117.64 165.206 117.893 164.972 118.068 164.669C118.248 164.366 118.338 164.009 118.338 163.597C118.338 163.18 118.248 162.825 118.068 162.531C117.893 162.233 117.64 162.006 117.308 161.849C116.982 161.688 116.586 161.608 116.122 161.608H114.73V173H110.781ZM145.014 170.074L144.815 176.409H141.321V173H140.27V170.074H145.014ZM124.872 158.455H128.707V169.96H132.259V158.455H136.065V169.96H139.531V158.455H143.338V173H124.872V158.455ZM146.348 158.455H150.297V166.068H150.41L155.581 158.455H158.933V173H154.984V165.358H154.899L149.643 173H146.348V158.455ZM169.764 173L165.304 167.119H164.75V173H160.801V158.455H164.75V163.938H165.261L169.437 158.455H174.409L168.869 165.443L174.721 173H169.764Z" fill="#4F63B0"/>
</svg>
