<svg width="183" height="178" viewBox="0 0 183 178" fill="none" xmlns="http://www.w3.org/2000/svg">
<path d="M55.517 163.909H51.5114C51.483 163.578 51.4072 163.277 51.2841 163.007C51.1657 162.737 51 162.505 50.7869 162.311C50.5786 162.112 50.3253 161.961 50.027 161.857C49.7287 161.748 49.3902 161.693 49.0114 161.693C48.3485 161.693 47.7874 161.854 47.3281 162.176C46.8736 162.498 46.5279 162.96 46.2912 163.561C46.0592 164.162 45.9432 164.884 45.9432 165.727C45.9432 166.617 46.0616 167.363 46.2983 167.964C46.5398 168.561 46.8878 169.011 47.3423 169.314C47.7969 169.612 48.3438 169.761 48.983 169.761C49.3475 169.761 49.6742 169.716 49.9631 169.626C50.2519 169.532 50.5028 169.397 50.7159 169.222C50.929 169.046 51.1018 168.836 51.2344 168.589C51.3717 168.339 51.464 168.057 51.5114 167.744L55.517 167.773C55.4697 168.388 55.2969 169.016 54.9986 169.655C54.7003 170.289 54.2765 170.876 53.7273 171.416C53.1828 171.951 52.508 172.382 51.7031 172.709C50.8982 173.036 49.9631 173.199 48.8977 173.199C47.5625 173.199 46.3646 172.912 45.304 172.339C44.2481 171.767 43.4124 170.924 42.7969 169.811C42.1861 168.698 41.8807 167.337 41.8807 165.727C41.8807 164.108 42.1932 162.744 42.8182 161.636C43.4432 160.524 44.286 159.683 45.3466 159.115C46.4072 158.542 47.5909 158.256 48.8977 158.256C49.8163 158.256 50.6615 158.381 51.4332 158.632C52.205 158.883 52.8821 159.25 53.4645 159.733C54.0469 160.211 54.5156 160.801 54.8707 161.501C55.2259 162.202 55.4413 163.005 55.517 163.909ZM56.8256 173V169.96L57.2234 169.903C57.7063 169.828 58.1064 169.619 58.4237 169.278C58.7456 168.933 58.9918 168.386 59.1623 167.638C59.3375 166.885 59.4487 165.86 59.4961 164.562L59.7234 158.455H70.2631V173H66.4563V161.523H63.3597L63.1325 166.097C63.0472 167.792 62.82 169.143 62.4506 170.152C62.0813 171.161 61.5202 171.887 60.7674 172.332C60.0146 172.777 59.0226 173 57.7915 173H56.8256ZM72.1328 173V158.455H82.6158V161.636H76.0817V164.136H82.076V167.318H76.0817V169.818H82.5874V173H72.1328ZM98.1538 163.909H94.1481C94.1197 163.578 94.0439 163.277 93.9208 163.007C93.8024 162.737 93.6367 162.505 93.4237 162.311C93.2153 162.112 92.962 161.961 92.6637 161.857C92.3654 161.748 92.0269 161.693 91.6481 161.693C90.9852 161.693 90.4241 161.854 89.9648 162.176C89.5103 162.498 89.1647 162.96 88.9279 163.561C88.6959 164.162 88.5799 164.884 88.5799 165.727C88.5799 166.617 88.6983 167.363 88.935 167.964C89.1765 168.561 89.5245 169.011 89.979 169.314C90.4336 169.612 90.9805 169.761 91.6197 169.761C91.9843 169.761 92.311 169.716 92.5998 169.626C92.8886 169.532 93.1396 169.397 93.3526 169.222C93.5657 169.046 93.7385 168.836 93.8711 168.589C94.0084 168.339 94.1007 168.057 94.1481 167.744L98.1538 167.773C98.1064 168.388 97.9336 169.016 97.6353 169.655C97.337 170.289 96.9132 170.876 96.364 171.416C95.8195 171.951 95.1448 172.382 94.3398 172.709C93.5349 173.036 92.5998 173.199 91.5344 173.199C90.1992 173.199 89.0013 172.912 87.9407 172.339C86.8848 171.767 86.0491 170.924 85.4336 169.811C84.8228 168.698 84.5174 167.337 84.5174 165.727C84.5174 164.108 84.8299 162.744 85.4549 161.636C86.0799 160.524 86.9227 159.683 87.9833 159.115C89.0439 158.542 90.2276 158.256 91.5344 158.256C92.453 158.256 93.2982 158.381 94.07 158.632C94.8417 158.883 95.5188 159.25 96.1012 159.733C96.6836 160.211 97.1523 160.801 97.5075 161.501C97.8626 162.202 98.078 163.005 98.1538 163.909ZM103.275 173H99.0131L103.814 158.455H109.212L114.013 173H109.752L106.57 162.46H106.456L103.275 173ZM102.479 167.261H110.49V170.216H102.479V167.261ZM115.414 173V158.455H121.692C122.772 158.455 123.717 158.668 124.526 159.094C125.336 159.52 125.966 160.119 126.415 160.891C126.865 161.662 127.09 162.564 127.09 163.597C127.09 164.638 126.858 165.54 126.394 166.303C125.935 167.065 125.289 167.652 124.455 168.064C123.627 168.476 122.658 168.682 121.55 168.682H117.8V165.614H120.755C121.219 165.614 121.614 165.533 121.941 165.372C122.272 165.206 122.526 164.972 122.701 164.669C122.881 164.366 122.971 164.009 122.971 163.597C122.971 163.18 122.881 162.825 122.701 162.531C122.526 162.233 122.272 162.006 121.941 161.849C121.614 161.688 121.219 161.608 120.755 161.608H119.363V173H115.414ZM131.039 163.341H134.05C135.277 163.341 136.347 163.537 137.261 163.93C138.179 164.323 138.892 164.877 139.398 165.592C139.91 166.307 140.163 167.148 140.158 168.114C140.163 169.08 139.91 169.929 139.398 170.663C138.892 171.397 138.179 171.97 137.261 172.382C136.347 172.794 135.277 173 134.05 173H128.624V158.455H132.573V169.903H134.05C134.529 169.903 134.929 169.825 135.251 169.669C135.577 169.513 135.824 169.297 135.989 169.023C136.16 168.748 136.243 168.436 136.238 168.085C136.243 167.588 136.058 167.176 135.684 166.849C135.31 166.518 134.765 166.352 134.05 166.352H131.039V163.341Z" fill="#4F63B0"/>
<path fill-rule="evenodd" clip-rule="evenodd" d="M0 17C0 7.61115 7.61115 0 17 0H166C175.389 0 183 7.61115 183 17V137C183 146.389 175.389 154 166 154H17C7.61115 154 0 146.389 0 137V17ZM63.5493 97.7454C63.2252 99.0004 62.4775 100.105 61.4329 100.872C59.2349 102.487 56.2675 102.573 53.9788 101.09L49.6048 98.2554L53.701 85.8885C54.8483 82.4246 54.4803 78.7065 54.1138 75.0032L54.1136 75.0012C53.9691 73.5408 53.8248 72.0826 53.7739 70.6432C53.6346 66.7117 55.0929 62.7704 58.0476 59.846L67.5083 50.4825L66.6996 42.0438C66.2244 37.0857 64.5295 32.3212 61.7667 28.1775L53.5823 15.9025L61.0436 18.4792C70.8915 21.8802 78.4247 29.9542 81.1522 40.0316L83.6362 49.2094L112.5 62.0211C104.98 66.6046 85.9947 60.3622 81.7205 58.0566L81.033 64.9941C80.9357 65.9766 80.3611 66.8483 79.4966 67.3251L73.8429 70.4437L76.816 76.0916L81.3372 82.8962L70.7673 86.7997L64.9026 92.5059L63.5493 97.7454ZM136.524 74.3687L133.419 77.4417L130.076 74.9807L132.572 71.8335L124.292 65.2182L61.4023 129.806C61.0027 132.072 61.3848 135.825 64.9124 136.715C65.9122 137.184 67.202 137.32 68.7062 136.948L71.7848 135.556L108.064 130.24C114.747 129.961 120.851 130.36 123.583 131.556C127.442 130.995 129.93 127.18 130.691 125.342L124.617 126.829C120.232 125.856 120.411 123.064 121.049 121.789L127.344 119.29L120.272 118.811C118.89 118.717 117.516 119.085 116.366 119.857C115.967 120.125 115.626 120.471 115.364 120.874L113.948 123.048L93.4188 125.773L123.664 112.096L130.429 122.401L139.536 116.628L128.062 98.0005L129.724 96.2913C132.843 95.4165 139.654 90.192 139.403 85.0375L138.285 82.8393L156.159 64.9995C158.995 58.9309 148.406 42.8355 138.095 49.0831L150.378 61.5585L136.524 74.3687ZM118.697 103.818L118.006 104.525L118.88 104.118L118.697 103.818ZM106.516 109.876C106.037 108.803 106.124 107.528 106.661 106.895L114.469 99.2819C112.046 98.1398 107.654 99.8952 105.76 100.916L87.4431 118.758L106.516 109.876Z" fill="#102885"/>
</svg>
