<svg width="183" height="178" viewBox="0 0 183 178" fill="none" xmlns="http://www.w3.org/2000/svg">
<rect width="183" height="154" rx="17" fill="#102885"/>
<path d="M68.1485 127L20 106.52L62.2926 98.84L37.5677 39.96L82.4629 55.96L100.681 31L116.948 67.48H152.083L132.563 109.08L169 114.2L125.406 127H100.681H68.1485Z" fill="white"/>
<path d="M67.0384 41.0382L58.3746 29.2842L64.3266 18.7843L81.7747 36.2893L77.6884 43.9242L67.0384 41.0382Z" fill="white"/>
<path d="M30.2302 91.9109L23.6886 87.2921L15 80.0968L40.6152 80.0968L45.1587 89.9638L30.2302 91.9109Z" fill="white"/>
<path d="M144.142 50.1361L126.956 52.8566L126.956 42.9964L148.129 36.5057L144.142 50.1361Z" fill="white"/>
<path d="M166.422 94.6953L153.616 85L139 104.306L162.173 105.146L166.422 94.6953Z" fill="white"/>
<path d="M67.2558 86.5074L64 91C84.3163 76.6236 109.798 82.8705 120 87.791L116.093 84.582C115.572 67.6383 102.853 59.9795 96.5581 58.268C93.4326 54.1604 89.6124 56.5565 88.093 58.268C73.507 60.8352 68.124 78.1639 67.2558 86.5074Z" fill="#102885"/>
<path d="M86.5245 90.2857V80L75.049 83.8571L75.049 97.3571C68.5688 90.6714 70.3238 107 77.0741 107V114.714L88.5496 125H98C95.2999 122.429 96.875 120.5 98 119.857V117.286H93.2748L90.5747 116L91.9247 113.429L90.5747 111.5L93.2748 107L91.9247 92.2143L86.5245 90.2857Z" fill="#102885"/>
<ellipse cx="92" cy="71.5" rx="8" ry="8.5" fill="white"/>
<path d="M33.9375 173V158.455H40.2443C41.3523 158.455 42.2827 158.604 43.0355 158.902C43.7931 159.2 44.3636 159.622 44.7472 160.166C45.1354 160.711 45.3295 161.352 45.3295 162.091C45.3295 162.626 45.2112 163.114 44.9744 163.554C44.7424 163.994 44.4157 164.364 43.9943 164.662C43.5729 164.955 43.0805 165.159 42.517 165.273V165.415C43.142 165.438 43.7102 165.597 44.2216 165.891C44.733 166.179 45.1402 166.58 45.4432 167.091C45.7462 167.598 45.8977 168.194 45.8977 168.881C45.8977 169.676 45.6894 170.384 45.2727 171.004C44.8608 171.625 44.2737 172.112 43.5114 172.467C42.7491 172.822 41.84 173 40.7841 173H33.9375ZM37.8864 169.847H39.733C40.3958 169.847 40.893 169.723 41.2244 169.477C41.5559 169.226 41.7216 168.857 41.7216 168.369C41.7216 168.028 41.6435 167.74 41.4872 167.503C41.331 167.266 41.1084 167.086 40.8196 166.963C40.5355 166.84 40.1922 166.778 39.7898 166.778H37.8864V169.847ZM37.8864 164.335H39.5057C39.8513 164.335 40.1567 164.281 40.4219 164.172C40.687 164.063 40.893 163.907 41.0398 163.703C41.1913 163.495 41.267 163.241 41.267 162.943C41.267 162.493 41.1061 162.15 40.7841 161.913C40.4621 161.672 40.0549 161.551 39.5625 161.551H37.8864V164.335ZM53.0071 173.199C51.8613 173.199 50.8433 173.002 49.9531 172.609C49.0677 172.212 48.3717 171.665 47.8651 170.969C47.3584 170.273 47.1027 169.473 47.098 168.568H51.0753C51.08 168.848 51.1652 169.098 51.331 169.321C51.5014 169.539 51.7334 169.709 52.027 169.832C52.3205 169.955 52.6567 170.017 53.0355 170.017C53.4001 170.017 53.7221 169.953 54.0014 169.825C54.2808 169.693 54.4986 169.51 54.6548 169.278C54.8111 169.046 54.8868 168.781 54.8821 168.483C54.8868 168.189 54.7969 167.929 54.6122 167.702C54.4323 167.474 54.179 167.297 53.8523 167.169C53.5256 167.041 53.1491 166.977 52.723 166.977H51.2457V164.25H52.723C53.116 164.25 53.4616 164.186 53.7599 164.058C54.063 163.93 54.2973 163.753 54.4631 163.526C54.6335 163.298 54.7164 163.038 54.7116 162.744C54.7164 162.46 54.6477 162.209 54.5057 161.991C54.3636 161.774 54.1648 161.603 53.9091 161.48C53.6581 161.357 53.367 161.295 53.0355 161.295C52.6757 161.295 52.3537 161.359 52.0696 161.487C51.7902 161.615 51.5701 161.793 51.4091 162.02C51.2481 162.247 51.1652 162.508 51.1605 162.801H47.3821C47.3868 161.911 47.6307 161.125 48.1136 160.443C48.6013 159.761 49.2689 159.226 50.1165 158.838C50.964 158.45 51.937 158.256 53.0355 158.256C54.1103 158.256 55.0597 158.438 55.8835 158.803C56.7121 159.167 57.3584 159.669 57.8224 160.308C58.2912 160.943 58.5232 161.67 58.5185 162.489C58.5279 163.303 58.2486 163.971 57.6804 164.491C57.117 165.012 56.402 165.32 55.5355 165.415V165.528C56.7098 165.656 57.5928 166.016 58.1847 166.608C58.7765 167.195 59.0677 167.934 59.0582 168.824C59.063 169.676 58.8073 170.431 58.2912 171.089C57.7798 171.748 57.0672 172.264 56.1534 172.638C55.2443 173.012 54.1955 173.199 53.0071 173.199ZM60.793 173V158.455H67.0714C68.1509 158.455 69.0955 158.668 69.9052 159.094C70.7148 159.52 71.3446 160.119 71.7944 160.891C72.2442 161.662 72.4691 162.564 72.4691 163.597C72.4691 164.638 72.2371 165.54 71.7731 166.303C71.3138 167.065 70.6675 167.652 69.8342 168.064C69.0056 168.476 68.0373 168.682 66.9293 168.682H63.1793V165.614H66.1339C66.5979 165.614 66.9933 165.533 67.32 165.372C67.6514 165.206 67.9047 164.972 68.0799 164.669C68.2598 164.366 68.3498 164.009 68.3498 163.597C68.3498 163.18 68.2598 162.825 68.0799 162.531C67.9047 162.233 67.6514 162.006 67.32 161.849C66.9933 161.688 66.5979 161.608 66.1339 161.608H64.7418V173H60.793ZM76.418 163.341H79.4293C80.6557 163.341 81.7257 163.537 82.6396 163.93C83.5581 164.323 84.2707 164.877 84.7773 165.592C85.2887 166.307 85.542 167.148 85.5373 168.114C85.542 169.08 85.2887 169.929 84.7773 170.663C84.2707 171.397 83.5581 171.97 82.6396 172.382C81.7257 172.794 80.6557 173 79.4293 173H74.0032V158.455H77.9521V169.903H79.4293C79.9076 169.903 80.3076 169.825 80.6296 169.669C80.9563 169.513 81.2025 169.297 81.3683 169.023C81.5387 168.748 81.6216 168.436 81.6168 168.085C81.6216 167.588 81.4369 167.176 81.0629 166.849C80.6888 166.518 80.1443 166.352 79.4293 166.352H76.418V163.341ZM90.5089 158.455V173H86.56V158.455H90.5089ZM92.375 173V158.455H98.6818C99.7898 158.455 100.72 158.604 101.473 158.902C102.231 159.2 102.801 159.622 103.185 160.166C103.573 160.711 103.767 161.352 103.767 162.091C103.767 162.626 103.649 163.114 103.412 163.554C103.18 163.994 102.853 164.364 102.432 164.662C102.01 164.955 101.518 165.159 100.955 165.273V165.415C101.58 165.438 102.148 165.597 102.659 165.891C103.17 166.179 103.578 166.58 103.881 167.091C104.184 167.598 104.335 168.194 104.335 168.881C104.335 169.676 104.127 170.384 103.71 171.004C103.298 171.625 102.711 172.112 101.949 172.467C101.187 172.822 100.277 173 99.2216 173H92.375ZM96.3239 169.847H98.1705C98.8333 169.847 99.3305 169.723 99.6619 169.477C99.9934 169.226 100.159 168.857 100.159 168.369C100.159 168.028 100.081 167.74 99.9247 167.503C99.7685 167.266 99.5459 167.086 99.2571 166.963C98.973 166.84 98.6297 166.778 98.2273 166.778H96.3239V169.847ZM96.3239 164.335H97.9432C98.2888 164.335 98.5942 164.281 98.8594 164.172C99.1245 164.063 99.3305 163.907 99.4773 163.703C99.6288 163.495 99.7045 163.241 99.7045 162.943C99.7045 162.493 99.5436 162.15 99.2216 161.913C98.8996 161.672 98.4924 161.551 98 161.551H96.3239V164.335ZM105.734 173V158.455H109.683V164.136H114.911V158.455H118.859V173H114.911V167.318H109.683V173H105.734ZM120.734 158.455H124.683V166.068H124.797L129.967 158.455H133.32V173H129.371V165.358H129.286L124.03 173H120.734V158.455ZM144.151 173L139.69 167.119H139.136V173H135.188V158.455H139.136V163.938H139.648L143.824 158.455H148.795L143.256 165.443L149.108 173H144.151Z" fill="#4F63B0"/>
</svg>
