<svg width="867" height="364" viewBox="0 0 867 364" fill="none" xmlns="http://www.w3.org/2000/svg">
<rect width="867" height="364" rx="16" fill="#102885"/>
<path d="M0 16C0 7.16344 7.16344 0 16 0H289V364H16C7.16344 364 0 356.837 0 348V16Z" fill="#102983"/>
<path d="M867 16C867 7.16344 859.837 0 851 0H578V364H851C859.837 364 867 356.837 867 348V16Z" fill="#E40017"/>
<path d="M606 0H260V364H606V0Z" fill="#028F38"/>
<path d="M183.455 174.273L186.727 154.636H191.273C193.939 154.636 196.076 154.424 197.682 154C199.318 153.545 200.652 152.758 201.682 151.636C202.742 150.485 203.758 148.879 204.727 146.818L206.182 144.091L181.818 79.9091H207.636L220.909 117.727L242 79.9091H267.455L223.455 152.636C221.03 156.455 218.333 160.015 215.364 163.318C212.394 166.591 208.939 169.242 205 171.273C201.061 173.273 196.424 174.273 191.091 174.273H183.455ZM341.091 79.9091L337.636 100.273H297.455L285.455 173H260.182L275.636 79.9091H341.091ZM428.318 128.091C426.621 138.212 423.258 146.697 418.227 153.545C413.197 160.394 407.091 165.561 399.909 169.045C392.727 172.53 385.045 174.273 376.864 174.273C368.136 174.273 360.561 172.379 354.136 168.591C347.712 164.803 343.03 159.258 340.091 151.955C337.152 144.652 336.561 135.727 338.318 125.182C339.955 115.061 343.288 106.545 348.318 99.6364C353.348 92.7273 359.485 87.5 366.727 83.9545C373.97 80.4091 381.712 78.6364 389.955 78.6364C398.621 78.6364 406.152 80.5455 412.545 84.3636C418.97 88.1818 423.636 93.7727 426.545 101.136C429.485 108.5 430.076 117.485 428.318 128.091ZM402.864 125.182C403.712 119.848 403.773 115.364 403.045 111.727C402.318 108.061 400.788 105.303 398.455 103.455C396.121 101.576 392.985 100.636 389.045 100.636C384.561 100.636 380.591 101.727 377.136 103.909C373.682 106.091 370.818 109.227 368.545 113.318C366.273 117.409 364.682 122.333 363.773 128.091C362.803 133.485 362.712 137.97 363.5 141.545C364.318 145.121 365.924 147.803 368.318 149.591C370.742 151.379 373.894 152.273 377.773 152.273C382.197 152.273 386.106 151.212 389.5 149.091C392.924 146.97 395.758 143.894 398 139.864C400.273 135.833 401.894 130.939 402.864 125.182ZM489.92 173L467.648 135.364H464.102L457.83 173H432.557L448.011 79.9091H473.284L467.466 115H470.739L503.284 79.9091H535.102L492.284 124.636L521.648 173H489.92Z" fill="white"/>
<path d="M345.636 210.273L349.091 189.909H430L426.545 210.273H398.545L386.545 283H361.636L373.636 210.273H345.636ZM424.057 283L439.511 189.909H506.602L503.148 210.273H461.33L458.784 226.273H497.148L493.693 246.636H455.33L452.784 262.636H494.42L490.966 283H424.057ZM600.136 224.818H574.864C575.045 222.667 574.924 220.727 574.5 219C574.076 217.273 573.348 215.788 572.318 214.545C571.288 213.273 569.939 212.303 568.273 211.636C566.606 210.97 564.621 210.636 562.318 210.636C557.894 210.636 553.939 211.742 550.455 213.955C546.97 216.136 544.076 219.273 541.773 223.364C539.47 227.424 537.833 232.273 536.864 237.909C536.015 243.364 535.985 247.894 536.773 251.5C537.591 255.106 539.182 257.803 541.545 259.591C543.939 261.379 547.045 262.273 550.864 262.273C553.409 262.273 555.742 261.97 557.864 261.364C560.015 260.758 561.924 259.894 563.591 258.773C565.288 257.621 566.727 256.258 567.909 254.682C569.121 253.076 570.045 251.303 570.682 249.364H596.136C595.167 253.303 593.439 257.333 590.955 261.455C588.47 265.545 585.258 269.318 581.318 272.773C577.379 276.197 572.742 278.97 567.409 281.091C562.076 283.212 556.076 284.273 549.409 284.273C540.682 284.273 533.152 282.364 526.818 278.545C520.515 274.727 515.939 269.152 513.091 261.818C510.273 254.485 509.712 245.545 511.409 235C513.106 224.818 516.455 216.288 521.455 209.409C526.455 202.53 532.53 197.348 539.682 193.864C546.833 190.379 554.439 188.636 562.5 188.636C568.591 188.636 574.045 189.439 578.864 191.045C583.712 192.652 587.788 195 591.091 198.091C594.424 201.152 596.879 204.924 598.455 209.409C600.03 213.894 600.591 219.03 600.136 224.818ZM611.511 210.273L614.966 189.909H695.875L692.42 210.273H664.42L652.42 283H627.511L639.511 210.273H611.511Z" fill="white"/>
</svg>
