<svg width="243" height="48" viewBox="0 0 243 48" fill="none" xmlns="http://www.w3.org/2000/svg">
<path d="M1.51705 23V5.54545H8.50568C9.78977 5.54545 10.8608 5.7358 11.7188 6.11648C12.5767 6.49716 13.2216 7.02557 13.6534 7.7017C14.0852 8.37216 14.3011 9.14489 14.3011 10.0199C14.3011 10.7017 14.1648 11.3011 13.892 11.8182C13.6193 12.3295 13.2443 12.75 12.767 13.0795C12.2955 13.4034 11.7557 13.6335 11.1477 13.7699V13.9403C11.8125 13.9687 12.4347 14.1562 13.0142 14.5028C13.5994 14.8494 14.0739 15.3352 14.4375 15.9602C14.8011 16.5795 14.983 17.3182 14.983 18.1761C14.983 19.1023 14.7528 19.929 14.2926 20.6562C13.8381 21.3778 13.1648 21.9489 12.2727 22.3693C11.3807 22.7898 10.2813 23 8.97443 23H1.51705ZM5.20739 19.983H8.21591C9.24432 19.983 9.99432 19.7869 10.4659 19.3949C10.9375 18.9972 11.1733 18.4687 11.1733 17.8097C11.1733 17.3267 11.0568 16.9006 10.8239 16.5312C10.5909 16.1619 10.2585 15.8722 9.8267 15.6619C9.40057 15.4517 8.89205 15.3466 8.30114 15.3466H5.20739V19.983ZM5.20739 12.8494H7.94318C8.44886 12.8494 8.89773 12.7614 9.28977 12.5852C9.6875 12.4034 10 12.1477 10.2273 11.8182C10.4602 11.4886 10.5767 11.0938 10.5767 10.6335C10.5767 10.0028 10.3523 9.49432 9.90341 9.10795C9.46023 8.72159 8.82955 8.52841 8.01136 8.52841H5.20739V12.8494ZM32.7848 11.6562H29.0518C28.9837 11.1733 28.8445 10.7443 28.6342 10.3693C28.424 9.98864 28.1541 9.66477 27.8246 9.39773C27.495 9.13068 27.1143 8.92614 26.6825 8.78409C26.2564 8.64205 25.7933 8.57102 25.2933 8.57102C24.3899 8.57102 23.603 8.79545 22.9325 9.24432C22.2621 9.6875 21.7422 10.3352 21.3729 11.1875C21.0036 12.0341 20.8189 13.0625 20.8189 14.2727C20.8189 15.517 21.0036 16.5625 21.3729 17.4091C21.7479 18.2557 22.2706 18.8949 22.9411 19.3267C23.6115 19.7585 24.3871 19.9744 25.2678 19.9744C25.7621 19.9744 26.2195 19.9091 26.6399 19.7784C27.0661 19.6477 27.4439 19.4574 27.7734 19.2074C28.103 18.9517 28.3757 18.642 28.5916 18.2784C28.8132 17.9148 28.9666 17.5 29.0518 17.0341L32.7848 17.0511C32.6882 17.8523 32.4467 18.625 32.0604 19.3693C31.6797 20.108 31.1655 20.7699 30.5178 21.3551C29.8757 21.9347 29.1087 22.3949 28.2166 22.7358C27.3303 23.071 26.3274 23.2386 25.2081 23.2386C23.6513 23.2386 22.2592 22.8864 21.032 22.1818C19.8104 21.4773 18.8445 20.4574 18.1342 19.1222C17.4297 17.7869 17.0774 16.1705 17.0774 14.2727C17.0774 12.3693 17.4354 10.75 18.1513 9.41477C18.8672 8.07955 19.8388 7.0625 21.0661 6.36364C22.2933 5.65909 23.674 5.30682 25.2081 5.30682C26.2195 5.30682 27.157 5.44886 28.0206 5.73295C28.8899 6.01705 29.6598 6.43182 30.3303 6.97727C31.0007 7.51704 31.5462 8.17898 31.9666 8.96307C32.3928 9.74716 32.6655 10.6449 32.7848 11.6562ZM35.4311 23V5.54545H47.1925V8.58807H39.1214V12.7472H46.5874V15.7898H39.1214V19.9574H47.2266V23H35.4311ZM55.0163 8.58807V5.54545H69.3516V8.58807H64.0078V23H60.3601V8.58807H55.0163ZM71.7124 23V5.54545H83.4737V8.58807H75.4027V12.7472H82.8686V15.7898H75.4027V19.9574H83.5078V23H71.7124ZM101.808 11.6562H98.0753C98.0071 11.1733 97.8679 10.7443 97.6577 10.3693C97.4474 9.98864 97.1776 9.66477 96.848 9.39773C96.5185 9.13068 96.1378 8.92614 95.706 8.78409C95.2798 8.64205 94.8168 8.57102 94.3168 8.57102C93.4134 8.57102 92.6264 8.79545 91.956 9.24432C91.2855 9.6875 90.7656 10.3352 90.3963 11.1875C90.027 12.0341 89.8423 13.0625 89.8423 14.2727C89.8423 15.517 90.027 16.5625 90.3963 17.4091C90.7713 18.2557 91.294 18.8949 91.9645 19.3267C92.6349 19.7585 93.4105 19.9744 94.2912 19.9744C94.7855 19.9744 95.2429 19.9091 95.6634 19.7784C96.0895 19.6477 96.4673 19.4574 96.7969 19.2074C97.1264 18.9517 97.3991 18.642 97.6151 18.2784C97.8366 17.9148 97.9901 17.5 98.0753 17.0341L101.808 17.0511C101.712 17.8523 101.47 18.625 101.084 19.3693C100.703 20.108 100.189 20.7699 99.5412 21.3551C98.8991 21.9347 98.1321 22.3949 97.2401 22.7358C96.3537 23.071 95.3509 23.2386 94.2315 23.2386C92.6747 23.2386 91.2827 22.8864 90.0554 22.1818C88.8338 21.4773 87.8679 20.4574 87.1577 19.1222C86.4531 17.7869 86.1009 16.1705 86.1009 14.2727C86.1009 12.3693 86.4588 10.75 87.1747 9.41477C87.8906 8.07955 88.8622 7.0625 90.0895 6.36364C91.3168 5.65909 92.6974 5.30682 94.2315 5.30682C95.2429 5.30682 96.1804 5.44886 97.044 5.73295C97.9134 6.01705 98.6832 6.43182 99.3537 6.97727C100.024 7.51704 100.57 8.17898 100.99 8.96307C101.416 9.74716 101.689 10.6449 101.808 11.6562ZM103.79 8.58807V5.54545H118.125V8.58807H112.781V23H109.134V8.58807H103.79ZM122.915 11.9972H127.074C128.46 11.9972 129.653 12.2216 130.653 12.6705C131.659 13.1136 132.435 13.7415 132.98 14.554C133.526 15.3665 133.795 16.3239 133.79 17.4261C133.795 18.5227 133.526 19.4915 132.98 20.3324C132.435 21.1676 131.659 21.821 130.653 22.2926C129.653 22.7642 128.46 23 127.074 23H120.554V5.54545H124.236V20.0341H127.074C127.739 20.0341 128.298 19.9148 128.753 19.6761C129.207 19.4318 129.551 19.1108 129.784 18.7131C130.023 18.3097 130.139 17.8693 130.134 17.392C130.139 16.6989 129.878 16.1136 129.349 15.6364C128.827 15.1534 128.068 14.9119 127.074 14.9119H122.915V11.9972ZM138.895 5.54545V23H135.213V5.54545H138.895Z" fill="white"/>
<path d="M164 23L176.124 10.25H151.876L164 23Z" fill="white"/>
</svg>
