<svg width="243" height="48" viewBox="0 0 243 48" fill="none" xmlns="http://www.w3.org/2000/svg">
<path d="M13.0994 5.54545V8.58807H5.20739V23H1.51705V5.54545H13.0994ZM14.5163 23V20.0341L15.0107 19.9915C15.647 19.9403 16.1612 19.6989 16.5533 19.267C16.9453 18.8295 17.2379 18.1335 17.4311 17.179C17.63 16.2188 17.7578 14.929 17.8146 13.3097L18.1044 5.54545H29.951V23H26.3629V8.50284H21.5305L21.2578 14.5795C21.1669 16.5341 20.9339 18.1307 20.5589 19.3693C20.1896 20.608 19.5987 21.5227 18.7862 22.1136C17.9794 22.7045 16.8743 23 15.4709 23H14.5163ZM36.0021 23H32.0476L38.0732 5.54545H42.8288L48.8459 23H44.8913L40.5192 9.53409H40.3828L36.0021 23ZM35.755 16.1392H45.0959V19.0199H35.755V16.1392ZM50.9467 23V5.54545H57.9354C59.2195 5.54545 60.2905 5.7358 61.1484 6.11648C62.0064 6.49716 62.6513 7.02557 63.0831 7.7017C63.5149 8.37216 63.7308 9.14489 63.7308 10.0199C63.7308 10.7017 63.5945 11.3011 63.3217 11.8182C63.049 12.3295 62.674 12.75 62.1967 13.0795C61.7251 13.4034 61.1854 13.6335 60.5774 13.7699V13.9403C61.2422 13.9687 61.8643 14.1562 62.4439 14.5028C63.0291 14.8494 63.5036 15.3352 63.8672 15.9602C64.2308 16.5795 64.4126 17.3182 64.4126 18.1761C64.4126 19.1023 64.1825 19.929 63.7223 20.6562C63.2678 21.3778 62.5945 21.9489 61.7024 22.3693C60.8104 22.7898 59.7109 23 58.4041 23H50.9467ZM54.6371 19.983H57.6456C58.674 19.983 59.424 19.7869 59.8956 19.3949C60.3672 18.9972 60.603 18.4687 60.603 17.8097C60.603 17.3267 60.4865 16.9006 60.2536 16.5312C60.0206 16.1619 59.6882 15.8722 59.2564 15.6619C58.8303 15.4517 58.3217 15.3466 57.7308 15.3466H54.6371V19.983ZM54.6371 12.8494H57.3729C57.8786 12.8494 58.3274 12.7614 58.7195 12.5852C59.1172 12.4034 59.4297 12.1477 59.657 11.8182C59.8899 11.4886 60.0064 11.0938 60.0064 10.6335C60.0064 10.0028 59.782 9.49432 59.3331 9.10795C58.8899 8.72159 58.2592 8.52841 57.4411 8.52841H54.6371V12.8494ZM66.8139 23V5.54545H70.5043V12.7472H77.9957V5.54545H81.6776V23H77.9957V15.7898H70.5043V23H66.8139ZM87.7287 23H83.7741L89.7997 5.54545H94.5554L100.572 23H96.6179L92.2457 9.53409H92.1094L87.7287 23ZM87.4815 16.1392H96.8224V19.0199H87.4815V16.1392ZM116.071 23H112.389V8.5625H109.901C109.19 8.5625 108.599 8.66761 108.128 8.87784C107.662 9.08239 107.313 9.38352 107.08 9.78125C106.847 10.179 106.73 10.6676 106.73 11.2472C106.73 11.821 106.847 12.3011 107.08 12.6875C107.313 13.0739 107.662 13.3636 108.128 13.5568C108.594 13.75 109.179 13.8466 109.884 13.8466H113.889V16.8125H109.287C107.952 16.8125 106.81 16.5909 105.861 16.1477C104.912 15.7045 104.188 15.0682 103.688 14.2386C103.188 13.4034 102.938 12.4062 102.938 11.2472C102.938 10.0937 103.182 9.09091 103.67 8.23864C104.165 7.38068 104.878 6.71875 105.81 6.25284C106.747 5.78125 107.875 5.54545 109.193 5.54545H116.071V23ZM106.653 15.0568H110.634L106.389 23H102.315L106.653 15.0568Z" fill="white"/>
<path d="M136 23L148.124 10.25H123.876L136 23Z" fill="white"/>
</svg>
