<svg width="67" height="37" viewBox="0 0 67 37" fill="none" xmlns="http://www.w3.org/2000/svg">
<path d="M35.8974 36L24 36L41.4744 1L53 1L35.8974 36Z" fill="#061037"/>
<path d="M20.8974 36L9 36L26.4744 1L38 1L20.8974 36Z" fill="#061037"/>
<path d="M28.8974 36L17 36L34.4744 1L46 1L28.8974 36Z" fill="#028F38" stroke="white" stroke-width="2"/>
<path d="M13.8974 36L2 36L19.4744 1L31 1L13.8974 36Z" fill="#102885" stroke="white" stroke-width="2"/>
<path d="M49.8974 36L38 36L55.4744 1L67 1L49.8974 36Z" fill="#061037"/>
<path d="M43.8974 36L32 36L49.4744 1L61 1L43.8974 36Z" fill="#E40017" stroke="white" stroke-width="2"/>
</svg>
