<svg width="129" height="28" viewBox="0 0 129 28" fill="none" xmlns="http://www.w3.org/2000/svg">
<path d="M0.125 5.95739V0.818181H22.2543V5.95739H14.3153V27H8.0767V5.95739H0.125ZM25.3448 27V0.818181H43.6005V5.95739H31.6729V11.3267H42.6673V16.4787H31.6729V21.8608H43.6005V27H25.3448ZM71.3292 10.304H64.9371C64.8519 9.64773 64.6772 9.0554 64.413 8.52699C64.1488 7.99858 63.7994 7.54687 63.3647 7.17188C62.93 6.79688 62.4144 6.51136 61.8178 6.31534C61.2298 6.11079 60.5778 6.00852 59.8619 6.00852C58.592 6.00852 57.4968 6.3196 56.5764 6.94176C55.6644 7.56392 54.9613 8.46307 54.467 9.6392C53.9812 10.8153 53.7383 12.2386 53.7383 13.9091C53.7383 15.6477 53.9854 17.1051 54.4798 18.2812C54.9826 19.4489 55.6857 20.331 56.5891 20.9276C57.5011 21.5156 58.5792 21.8097 59.8235 21.8097C60.5224 21.8097 61.1573 21.7202 61.7283 21.5412C62.3079 21.3622 62.815 21.1023 63.2496 20.7614C63.6928 20.4119 64.055 19.9901 64.3363 19.4957C64.6261 18.9929 64.8263 18.4261 64.9371 17.7955L71.3292 17.8338C71.2184 18.9929 70.8817 20.1349 70.3192 21.2599C69.7653 22.3849 69.0025 23.4119 68.0309 24.3409C67.0593 25.2614 65.8746 25.9943 64.4769 26.5398C63.0877 27.0852 61.494 27.358 59.6957 27.358C57.3263 27.358 55.2042 26.8381 53.3292 25.7983C51.4627 24.75 49.9883 23.2244 48.9059 21.2216C47.8235 19.2187 47.2823 16.7812 47.2823 13.9091C47.2823 11.0284 47.832 8.58665 48.9315 6.58381C50.0309 4.58097 51.5181 3.05966 53.3931 2.01989C55.2681 0.980113 57.369 0.460226 59.6957 0.460226C61.2809 0.460226 62.7468 0.681818 64.0934 1.125C65.44 1.55966 66.6246 2.19886 67.6474 3.04261C68.6701 3.87784 69.5011 4.90483 70.1403 6.12358C70.7795 7.34233 71.1758 8.7358 71.3292 10.304ZM74.0938 5.95739V0.818181H96.223V5.95739H88.2841V27H82.0455V5.95739H74.0938ZM103.392 10.0483H109.221C111.36 10.0483 113.218 10.3935 114.795 11.0838C116.372 11.7741 117.591 12.7457 118.451 13.9986C119.321 15.2514 119.755 16.7259 119.755 18.4219C119.755 20.1179 119.321 21.6094 118.451 22.8963C117.591 24.1832 116.372 25.1889 114.795 25.9134C113.218 26.6378 111.36 27 109.221 27H99.4414V0.818181H105.757V21.9886H109.221C110.142 21.9886 110.917 21.831 111.548 21.5156C112.187 21.1918 112.669 20.7571 112.993 20.2116C113.325 19.6577 113.487 19.044 113.478 18.3707C113.487 17.3991 113.125 16.5895 112.392 15.9418C111.659 15.2855 110.602 14.9574 109.221 14.9574H103.392V10.0483ZM128.052 0.818181V27H121.737V0.818181H128.052Z" fill="#000722"/>
</svg>
