<svg width="287" height="44" viewBox="0 0 287 44" fill="none" xmlns="http://www.w3.org/2000/svg">
<path d="M81.6051 35.358L82.4489 30.3466H83.804C84.5284 30.3466 85.1207 30.2741 85.581 30.1293C86.0412 29.9759 86.4205 29.733 86.7188 29.4006C87.0256 29.0682 87.3153 28.625 87.5881 28.071L88.0227 27.2656L81.4006 8.81818H87.8949L91.7812 20.5795L98.3778 8.81818H104.783L92.3438 29.5668C91.7045 30.5895 90.9929 31.544 90.2088 32.4304C89.4247 33.3082 88.5043 34.0156 87.4474 34.5526C86.3906 35.0895 85.1293 35.358 83.6634 35.358H81.6051ZM125.327 8.81818L124.457 13.9574H112.901L109.423 35H103.095L107.442 8.81818H125.327ZM149.709 22.3182C149.232 25.1392 148.294 27.5213 146.897 29.4645C145.507 31.3991 143.816 32.8651 141.821 33.8622C139.836 34.8594 137.701 35.358 135.417 35.358C133.005 35.358 130.917 34.821 129.152 33.7472C127.388 32.6733 126.105 31.1094 125.304 29.0554C124.512 27.0014 124.358 24.5085 124.844 21.5767C125.304 18.7557 126.229 16.3693 127.618 14.4176C129.016 12.4659 130.716 10.9872 132.719 9.98153C134.73 8.96733 136.887 8.46023 139.188 8.46023C141.583 8.46023 143.658 9.00142 145.414 10.0838C147.178 11.1662 148.456 12.7386 149.249 14.8011C150.042 16.8636 150.195 19.3693 149.709 22.3182ZM143.381 21.5767C143.645 19.9318 143.645 18.5469 143.381 17.4219C143.125 16.2969 142.623 15.4489 141.873 14.8778C141.123 14.2983 140.147 14.0085 138.945 14.0085C137.615 14.0085 136.414 14.3366 135.34 14.9929C134.275 15.6406 133.384 16.5866 132.668 17.831C131.952 19.0668 131.453 20.5625 131.172 22.3182C130.882 23.9801 130.874 25.3651 131.147 26.473C131.428 27.581 131.952 28.4162 132.719 28.9787C133.486 29.5327 134.462 29.8097 135.647 29.8097C136.968 29.8097 138.157 29.4901 139.213 28.8509C140.27 28.2116 141.152 27.2784 141.86 26.0511C142.576 24.8239 143.083 23.3324 143.381 21.5767ZM167.287 35L160.87 24.1335H159.425L157.623 35H151.294L155.641 8.81818H161.969L160.282 18.9815H161.292L171.084 8.81818H178.998L166.878 21.1804L175.175 35H167.287ZM181.193 35.3707C180.264 35.3707 179.506 35.0469 178.918 34.3991C178.33 33.7514 178.074 32.9673 178.151 32.0469C178.236 31.1435 178.636 30.3722 179.352 29.733C180.068 29.0937 180.886 28.7741 181.807 28.7741C182.685 28.7741 183.422 29.0937 184.018 29.733C184.624 30.3722 184.884 31.1435 184.798 32.0469C184.747 32.6605 184.538 33.2187 184.172 33.7216C183.814 34.2244 183.371 34.625 182.842 34.9233C182.314 35.2216 181.764 35.3707 181.193 35.3707ZM189.845 13.9574L190.714 8.81818H212.843L211.974 13.9574H204.035L200.558 35H194.319L197.797 13.9574H189.845ZM211.587 35L215.934 8.81818H234.19L233.32 13.9574H221.393L220.523 19.3267H231.518L230.648 24.4787H219.654L218.785 29.8608H230.712L229.843 35H211.587ZM260.32 18.304H254.005C254.039 17.6392 253.975 17.0469 253.813 16.527C253.651 15.9986 253.396 15.5469 253.046 15.1719C252.697 14.7884 252.262 14.4986 251.742 14.3026C251.222 14.1065 250.617 14.0085 249.927 14.0085C248.606 14.0085 247.408 14.3366 246.335 14.9929C245.261 15.6491 244.362 16.5952 243.637 17.831C242.913 19.0668 242.406 20.5497 242.116 22.2798C241.852 23.9503 241.856 25.3437 242.129 26.4602C242.41 27.5767 242.93 28.4162 243.688 28.9787C244.447 29.5327 245.41 29.8097 246.577 29.8097C247.336 29.8097 248.039 29.7202 248.687 29.5412C249.343 29.3537 249.935 29.0852 250.464 28.7358C250.992 28.3864 251.448 27.9645 251.832 27.4702C252.224 26.9673 252.526 26.4091 252.739 25.7955H259.106C258.79 26.946 258.271 28.0923 257.546 29.2344C256.83 30.3679 255.927 31.3949 254.836 32.3153C253.745 33.2358 252.479 33.973 251.039 34.527C249.599 35.081 247.996 35.358 246.232 35.358C243.82 35.358 241.741 34.8168 239.994 33.7344C238.255 32.652 236.998 31.0838 236.222 29.0298C235.455 26.9673 235.31 24.4702 235.788 21.5384C236.256 18.7003 237.181 16.3097 238.562 14.3665C239.951 12.4233 241.638 10.9531 243.624 9.95597C245.619 8.95881 247.745 8.46023 250.004 8.46023C251.64 8.46023 253.11 8.68182 254.414 9.125C255.727 9.55966 256.839 10.1989 257.751 11.0426C258.663 11.8778 259.34 12.9048 259.783 14.1236C260.235 15.3423 260.414 16.7358 260.32 18.304ZM263.814 13.9574L264.683 8.81818H286.812L285.943 13.9574H278.004L274.527 35H268.288L271.765 13.9574H263.814Z" fill="#061037"/>
<path d="M76.6051 35.358L77.4489 30.3466H78.804C79.5284 30.3466 80.1207 30.2741 80.581 30.1293C81.0412 29.9759 81.4205 29.733 81.7188 29.4006C82.0256 29.0682 82.3153 28.625 82.5881 28.071L83.0227 27.2656L76.4006 8.81818H82.8949L86.7812 20.5795L93.3778 8.81818H99.7827L87.3438 29.5668C86.7045 30.5895 85.9929 31.544 85.2088 32.4304C84.4247 33.3082 83.5043 34.0156 82.4474 34.5526C81.3906 35.0895 80.1293 35.358 78.6634 35.358H76.6051ZM120.327 8.81818L119.457 13.9574H107.901L104.423 35H98.0952L102.442 8.81818H120.327ZM144.709 22.3182C144.232 25.1392 143.294 27.5213 141.897 29.4645C140.507 31.3991 138.816 32.8651 136.821 33.8622C134.836 34.8594 132.701 35.358 130.417 35.358C128.005 35.358 125.917 34.821 124.152 33.7472C122.388 32.6733 121.105 31.1094 120.304 29.0554C119.512 27.0014 119.358 24.5085 119.844 21.5767C120.304 18.7557 121.229 16.3693 122.618 14.4176C124.016 12.4659 125.716 10.9872 127.719 9.98153C129.73 8.96733 131.887 8.46023 134.188 8.46023C136.583 8.46023 138.658 9.00142 140.414 10.0838C142.178 11.1662 143.456 12.7386 144.249 14.8011C145.042 16.8636 145.195 19.3693 144.709 22.3182ZM138.381 21.5767C138.645 19.9318 138.645 18.5469 138.381 17.4219C138.125 16.2969 137.623 15.4489 136.873 14.8778C136.123 14.2983 135.147 14.0085 133.945 14.0085C132.615 14.0085 131.414 14.3366 130.34 14.9929C129.275 15.6406 128.384 16.5866 127.668 17.831C126.952 19.0668 126.453 20.5625 126.172 22.3182C125.882 23.9801 125.874 25.3651 126.147 26.473C126.428 27.581 126.952 28.4162 127.719 28.9787C128.486 29.5327 129.462 29.8097 130.647 29.8097C131.968 29.8097 133.157 29.4901 134.213 28.8509C135.27 28.2116 136.152 27.2784 136.86 26.0511C137.576 24.8239 138.083 23.3324 138.381 21.5767ZM162.287 35L155.87 24.1335H154.425L152.623 35H146.294L150.641 8.81818H156.969L155.282 18.9815H156.292L166.084 8.81818H173.998L161.878 21.1804L170.175 35H162.287ZM176.193 35.3707C175.264 35.3707 174.506 35.0469 173.918 34.3991C173.33 33.7514 173.074 32.9673 173.151 32.0469C173.236 31.1435 173.636 30.3722 174.352 29.733C175.068 29.0937 175.886 28.7741 176.807 28.7741C177.685 28.7741 178.422 29.0937 179.018 29.733C179.624 30.3722 179.884 31.1435 179.798 32.0469C179.747 32.6605 179.538 33.2187 179.172 33.7216C178.814 34.2244 178.371 34.625 177.842 34.9233C177.314 35.2216 176.764 35.3707 176.193 35.3707ZM184.845 13.9574L185.714 8.81818H207.843L206.974 13.9574H199.035L195.558 35H189.319L192.797 13.9574H184.845ZM206.587 35L210.934 8.81818H229.19L228.32 13.9574H216.393L215.523 19.3267H226.518L225.648 24.4787H214.654L213.785 29.8608H225.712L224.843 35H206.587ZM255.32 18.304H249.005C249.039 17.6392 248.975 17.0469 248.813 16.527C248.651 15.9986 248.396 15.5469 248.046 15.1719C247.697 14.7884 247.262 14.4986 246.742 14.3026C246.222 14.1065 245.617 14.0085 244.927 14.0085C243.606 14.0085 242.408 14.3366 241.335 14.9929C240.261 15.6491 239.362 16.5952 238.637 17.831C237.913 19.0668 237.406 20.5497 237.116 22.2798C236.852 23.9503 236.856 25.3437 237.129 26.4602C237.41 27.5767 237.93 28.4162 238.688 28.9787C239.447 29.5327 240.41 29.8097 241.577 29.8097C242.336 29.8097 243.039 29.7202 243.687 29.5412C244.343 29.3537 244.935 29.0852 245.464 28.7358C245.992 28.3864 246.448 27.9645 246.832 27.4702C247.224 26.9673 247.526 26.4091 247.739 25.7955H254.106C253.79 26.946 253.271 28.0923 252.546 29.2344C251.83 30.3679 250.927 31.3949 249.836 32.3153C248.745 33.2358 247.479 33.973 246.039 34.527C244.599 35.081 242.996 35.358 241.232 35.358C238.82 35.358 236.741 34.8168 234.994 33.7344C233.255 32.652 231.998 31.0838 231.222 29.0298C230.455 26.9673 230.31 24.4702 230.788 21.5384C231.256 18.7003 232.181 16.3097 233.562 14.3665C234.951 12.4233 236.638 10.9531 238.624 9.95597C240.619 8.95881 242.745 8.46023 245.004 8.46023C246.64 8.46023 248.11 8.68182 249.414 9.125C250.727 9.55966 251.839 10.1989 252.751 11.0426C253.663 11.8778 254.34 12.9048 254.783 14.1236C255.235 15.3423 255.414 16.7358 255.32 18.304ZM258.814 13.9574L259.683 8.81818H281.812L280.943 13.9574H273.004L269.527 35H263.288L266.765 13.9574H258.814Z" fill="white"/>
<path d="M35.8974 39L24 39L41.4744 4L53 4L35.8974 39Z" fill="#061037"/>
<path d="M20.8974 39L9 39L26.4744 4L38 4L20.8974 39Z" fill="#061037"/>
<path d="M28.8974 39L17 39L34.4744 4L46 4L28.8974 39Z" fill="#028F38" stroke="white" stroke-width="2"/>
<path d="M13.8974 39L2 39L19.4744 4L31 4L13.8974 39Z" fill="#102885" stroke="white" stroke-width="2"/>
<path d="M49.8974 39L38 39L55.4744 4L67 4L49.8974 39Z" fill="#061037"/>
<path d="M43.8974 39L32 39L49.4744 4L61 4L43.8974 39Z" fill="#E40017" stroke="white" stroke-width="2"/>
</svg>
